<svg width="32" height="32" viewBox="0 0 32 32" fill="none" xmlns="http://www.w3.org/2000/svg">
<g id="user-circle">
<path id="user-circle_2" d="M30.3333 16C30.3333 8.09596 23.904 1.66663 16 1.66663C8.09599 1.66663 1.66666 8.09596 1.66666 16C1.66666 20.6266 3.87865 24.736 7.29198 27.3587C7.29732 27.364 7.30537 27.3667 7.3107 27.372C9.72537 29.2214 12.732 30.3333 16.0013 30.3333C19.2706 30.3333 22.2774 29.2214 24.692 27.372C24.6974 27.3667 24.7053 27.364 24.7106 27.3587C28.1213 24.736 30.3333 20.6266 30.3333 16ZM3.66666 16C3.66666 9.19863 9.19866 3.66663 16 3.66663C22.8013 3.66663 28.3333 9.19863 28.3333 16C28.3333 19.364 26.976 22.416 24.784 24.6427C24.1853 22.108 22.2693 19.7599 18.2799 19.7599H13.72C9.73071 19.7599 7.81331 22.108 7.21597 24.6427C5.02397 22.416 3.66666 19.364 3.66666 16ZM9.01203 26.152C9.08937 24.784 9.71471 21.7599 13.72 21.7599H18.2799C22.2853 21.7599 22.9106 24.784 22.9879 26.152C20.9999 27.5253 18.5933 28.3333 16 28.3333C13.4067 28.3333 11 27.524 9.01203 26.152ZM16.0107 18.3333C18.7667 18.3333 21.0107 16.0906 21.0107 13.3333C21.0107 10.576 18.7667 8.33329 16.0107 8.33329C13.2547 8.33329 11.0107 10.576 11.0107 13.3333C11.0107 16.0906 13.2534 18.3333 16.0107 18.3333ZM16.0107 10.3333C17.6641 10.3333 19.0107 11.6786 19.0107 13.3333C19.0107 14.988 17.6641 16.3333 16.0107 16.3333C14.3574 16.3333 13.0107 14.988 13.0107 13.3333C13.0107 11.6786 14.3574 10.3333 16.0107 10.3333Z" fill="#475467"/>
</g>
</svg>
